PathFileType	4	(x/y/z)	S08_BK_Cal_T01
DataRate	CameraRate	NumFrames	NumMarkers	Units	OrigDataRate	OrigDataStartFrame	OrigNumFrames
240	240	4	51	mm	240	1801	2400
Frame#	Time	Sternum			R.Acromium			L.Acromium			Top.Head			R.ASIS			L.ASIS			R.PSIS			L.PSIS			R.Great.Tro			L.Great.Tro			R.Iliac.Crest			L.Iliac.Crest			V.Sacral			R.Thigh.Upper.Post			R.Thigh.Lower.Ant			R.Thigh.Lower.Post			R.Thigh.Upper.Ant			R.Knee.Lat			R.Knee.Med			R.Shank.Upper.Post			R.Shank.Lower.Ant			R.Shank.Lower.Post			R.Shank.Upper.Ant			R.Ankle.Lat			R.Ankle.Med			R.Heel.Upper			R.Heel.Med			R.Heel.Lat			R.Toe.Lat			R.Toe.Med			R.Toe.Tip			L.Thigh.Upper.Post			L.Thigh.Lower.Ant			L.Thigh.Lower.Post			L.Thigh.Upper.Ant			L.Knee.Lat			L.Knee.Med			L.Shank.Upper.Post			L.Shank.Lower.Ant			L.Shank.Lower.Post			L.Shank.Upper.Ant			L.Ankle.Lat			L.Ankle.Med			L.Heel.Upper			L.Heel.Med			L.Heel.Lat			L.Toe.Lat			L.Toe.Med			L.Toe.Tip			Cervical.Spine			Back			
		X1	Y1	Z1	X2	Y2	Z2	X3	Y3	Z3	X4	Y4	Z4	X5	Y5	Z5	X6	Y6	Z6	X7	Y7	Z7	X8	Y8	Z8	X9	Y9	Z9	X10	Y10	Z10	X11	Y11	Z11	X12	Y12	Z12	X13	Y13	Z13	X14	Y14	Z14	X15	Y15	Z15	X16	Y16	Z16	X17	Y17	Z17	X18	Y18	Z18	X19	Y19	Z19	X20	Y20	Z20	X21	Y21	Z21	X22	Y22	Z22	X23	Y23	Z23	X24	Y24	Z24	X25	Y25	Z25	X26	Y26	Z26	X27	Y27	Z27	X28	Y28	Z28	X29	Y29	Z29	X30	Y30	Z30	X31	Y31	Z31	X32	Y32	Z32	X33	Y33	Z33	X34	Y34	Z34	X35	Y35	Z35	X36	Y36	Z36	X37	Y37	Z37	X38	Y38	Z38	X39	Y39	Z39	X40	Y40	Z40	X41	Y41	Z41	X42	Y42	Z42	X43	Y43	Z43	X44	Y44	Z44	X45	Y45	Z45	X46	Y46	Z46	X47	Y47	Z47	X48	Y48	Z48	X49	Y49	Z49	X50	Y50	Z50	X51	Y51	Z51	

1801	7.5	496.24	1161.2	320.84	405.74	1419.2	487.77	410.05	1441	153.52	418.42	1738	335.31	411.56	945.37	430.86	423.39	944.76	198.6	225.29	1025.1	348.27	236.23	1027.9	254.59	325.05	874.33	503.28	317.19	879.17	121.07	338.08	1039.7	470.29	362.78	1048.4	169.6	203.59	991.43	298.1	374.6	680.12	516.25	485.88	614.8	505.68	415.6	598.34	506.74	450.72	703.5	513.03	487.4	513.12	507.43	473.43	498.06	381.73	395.4	346.42	527.07	442.48	270.9	515.99	378.51	271.97	528.19	459.78	346.91	518.62	340.64	104.07	510.53	373.93	110.64	431.36	291.18	65.309	463.29	305.67	38.932	437.39	294.32	41.259	498.61	466.23	32.885	557.71	491.1	45.527	440.7	553.06	62.615	490.78	373.87	674.46	106.08	488.89	621.51	108.68	423.67	597.9	111.02	442.71	697.83	99.483	476.23	509.73	111.61	491.37	495.74	232.21	389.1	350.35	97.326	436.42	248.88	104.97	370.89	278.47	106.83	449.2	324	96.804	350.5	105.35	101.73	379.58	101.83	186.19	294.87	75.109	149.92	311.87	41.734	179.29	300.85	47.822	116.67	474.65	39.845	68.022	501.79	45.592	180.39	561.27	62.6	127.23	345.19	1480.8	310.86	264.93	1211.5	321.98
1802	7.5042	496.24	1161.2	320.82	405.76	1419.2	487.76	410.07	1441	153.51	418.4	1737.9	335.3	411.56	945.35	430.84	423.39	944.75	198.57	225.29	1025	348.25	236.23	1027.9	254.57	325.05	874.32	503.26	317.18	879.16	121.05	338.08	1039.7	470.27	362.78	1048.4	169.58	203.58	991.42	298.07	374.61	680.11	516.24	485.89	614.8	505.66	415.61	598.33	506.72	450.73	703.49	513	487.42	513.11	507.41	473.43	498.05	381.71	395.41	346.43	527.06	442.49	270.89	515.97	378.52	271.97	528.18	459.79	346.9	518.6	340.64	104.07	510.52	373.93	110.64	431.35	291.18	65.306	463.29	305.67	38.931	437.39	294.32	41.257	498.61	466.23	32.886	557.71	491.09	45.526	440.7	553.06	62.615	490.78	373.88	674.45	106.06	488.89	621.51	108.67	423.67	597.89	110.99	442.72	697.82	99.463	476.24	509.73	111.6	491.38	495.73	232.19	389.1	350.34	97.318	436.42	248.88	104.97	370.89	278.47	106.82	449.21	324	96.796	350.5	105.35	101.73	379.58	101.83	186.18	294.87	75.108	149.92	311.87	41.735	179.29	300.85	47.821	116.67	474.65	39.844	68.021	501.79	45.583	180.39	561.27	62.6	127.23	345.2	1480.7	310.85	264.94	1211.5	321.97
1803	7.5083	496.24	1161.2	320.81	405.78	1419.2	487.75	410.09	1441	153.5	418.39	1737.9	335.29	411.55	945.34	430.82	423.38	944.74	198.55	225.28	1025	348.23	236.23	1027.9	254.55	325.05	874.32	503.24	317.17	879.16	121.02	338.08	1039.7	470.25	362.78	1048.4	169.56	203.58	991.42	298.05	374.62	680.11	516.22	485.9	614.79	505.63	415.62	598.33	506.7	450.74	703.49	512.98	487.43	513.1	507.39	473.44	498.04	381.69	395.42	346.43	527.05	442.5	270.89	515.96	378.52	271.97	528.18	459.8	346.9	518.59	340.64	104.07	510.52	373.93	110.64	431.35	291.18	65.303	463.29	305.67	38.93	437.39	294.32	41.256	498.61	466.23	32.887	557.71	491.09	45.525	440.7	553.06	62.616	490.78	373.88	674.45	106.04	488.9	621.5	108.65	423.68	597.89	110.97	442.72	697.81	99.444	476.25	509.72	111.58	491.39	495.73	232.18	389.11	350.34	97.309	436.43	248.87	104.97	370.9	278.46	106.82	449.21	323.99	96.788	350.5	105.35	101.73	379.58	101.83	186.18	294.87	75.108	149.92	311.87	41.736	179.29	300.85	47.821	116.67	474.65	39.843	68.021	501.78	45.575	180.39	561.27	62.6	127.22	345.22	1480.7	310.84	264.94	1211.5	321.96
1804	7.5125	496.25	1161.2	320.79	405.8	1419.2	487.73	410.11	1441	153.49	418.38	1737.9	335.27	411.55	945.33	430.8	423.38	944.73	198.53	225.28	1025	348.2	236.23	1027.9	254.52	325.05	874.31	503.22	317.17	879.15	121	338.08	1039.7	470.24	362.77	1048.3	169.54	203.58	991.41	298.02	374.63	680.1	516.2	485.91	614.79	505.61	415.63	598.32	506.68	450.75	703.48	512.95	487.44	513.1	507.37	473.45	498.03	381.67	395.43	346.43	527.04	442.5	270.89	515.94	378.53	271.97	528.17	459.81	346.9	518.57	340.64	104.07	510.52	373.94	110.64	431.35	291.18	65.301	463.29	305.67	38.929	437.39	294.32	41.254	498.61	466.23	32.886	557.71	491.1	45.523	440.7	553.06	62.617	490.77	373.88	674.44	106.01	488.9	621.5	108.64	423.68	597.88	110.96	442.72	697.8	99.424	476.26	509.72	111.56	491.39	495.73	232.17	389.12	350.34	97.301	436.43	248.87	104.96	370.9	278.46	106.81	449.22	323.99	96.781	350.5	105.35	101.73	379.58	101.83	186.18	294.87	75.107	149.92	311.87	41.737	179.29	300.85	47.82	116.67	474.65	39.842	68.02	501.77	45.567	180.39	561.27	62.6	127.22	345.24	1480.7	310.83	264.95	1211.5	321.95
